<svg width="16" height="16" viewBox="0 0 16 16" fill="none" xmlns="http://www.w3.org/2000/svg">
<path d="M14.6166 8.16117C14.6166 7.70523 14.5725 7.23457 14.4989 6.79333H8.13037V9.39664H11.7779C11.6309 10.235 11.1455 10.9704 10.4248 11.441L12.6016 13.1325C13.8812 11.9411 14.6166 10.2056 14.6166 8.16117Z" fill="#4280EF"/>
<path d="M8.1306 14.7513C9.95439 14.7513 11.484 14.1483 12.6018 13.1187L10.425 11.442C9.82201 11.8539 9.04249 12.0892 8.1306 12.0892C6.36565 12.0892 4.88014 10.8978 4.33595 9.30939L2.10034 11.0302C3.24756 13.3099 5.57142 14.7513 8.1306 14.7513Z" fill="#34A353"/>
<path d="M4.3361 9.2942C4.05665 8.45585 4.05665 7.54395 4.3361 6.7056L2.1005 4.97006C1.14448 6.8821 1.14448 9.13241 2.1005 11.0297L4.3361 9.2942Z" fill="#F6B704"/>
<path d="M8.1306 3.92573C9.08662 3.91102 10.0279 4.27872 10.7192 4.94058L12.6459 2.99913C11.4252 1.85191 9.80731 1.23418 8.1306 1.24888C5.57142 1.24888 3.24756 2.69026 2.10034 4.96999L4.33595 6.70553C4.88014 5.10237 6.36565 3.92573 8.1306 3.92573Z" fill="#E54335"/>
</svg>
